<?xml version="1.0" standalone="no"?>
<!DOCTYPE svg PUBLIC "-//W3C//DTD SVG 20010904//EN"
 "http://www.w3.org/TR/2001/REC-SVG-20010904/DTD/svg10.dtd">
<svg version="1.0" xmlns="http://www.w3.org/2000/svg"
 width="400.000000pt" height="400.000000pt" viewBox="0 0 400.000000 400.000000"
 preserveAspectRatio="xMidYMid meet">
<metadata>
Created by potrace 1.14, written by Peter Selinger 2001-2017
</metadata>
<g transform="translate(0.000000,400.000000) scale(0.100000,-0.100000)"
fill="#000000" stroke="none">
<path d="M0 2005 l0 -1995 2000 0 2000 0 0 1995 0 1995 -2000 0 -2000 0 0
-1995z m2005 1255 c13 0 26 6 28 13 3 7 6 5 6 -5 1 -10 7 -18 14 -18 6 0 3 -7
-8 -16 -11 -8 -19 -19 -18 -24 2 -5 -2 -21 -7 -35 -7 -20 -6 -25 5 -25 8 0 15
-4 15 -10 0 -5 5 -10 10 -10 6 0 10 10 10 23 1 22 1 22 16 2 8 -11 12 -25 9
-33 -2 -7 0 -10 5 -7 17 10 11 44 -10 57 -24 15 -25 24 -5 32 9 3 24 -3 35
-14 16 -16 18 -24 9 -47 -10 -27 -9 -27 18 6 18 21 35 32 47 30 25 -5 33 -29
11 -29 -10 0 -33 -14 -53 -31 -26 -24 -30 -30 -14 -25 14 5 22 3 22 -4 0 -17
-31 -24 -51 -11 -23 14 -24 8 -3 -14 9 -9 14 -19 11 -22 -12 -12 -34 6 -51 41
-16 33 -20 36 -59 34 l-42 -1 43 -4 c45 -4 54 -20 26 -48 -20 -19 -36 -16 -48
12 -9 20 -10 19 -34 -8 -13 -16 -31 -29 -40 -29 -12 0 -10 6 9 26 l24 26 -28
-13 c-24 -11 -30 -10 -45 5 -16 16 -15 17 13 10 29 -6 28 -5 -12 25 -24 17
-50 31 -59 31 -24 0 -10 25 16 28 17 3 31 -4 46 -23 22 -27 22 -27 17 -3 -6
29 31 68 48 51 8 -8 5 -17 -10 -32 -17 -17 -19 -25 -11 -41 12 -23 22 -27 14
-6 -3 8 -1 23 5 33 9 17 10 17 18 -3 7 -18 11 -19 33 -7 14 7 19 13 13 13 -8
0 -13 13 -13 29 0 16 -6 34 -14 41 -12 9 -13 16 -3 38 9 20 13 22 15 9 2 -10
13 -17 27 -17z m-178 -170 c23 0 63 -61 63 -95 0 -19 5 -37 12 -41 8 -5 9 -2
5 10 -13 33 31 73 49 44 5 -7 2 -9 -8 -6 -19 8 -39 -24 -27 -43 5 -8 20 -13
39 -11 33 4 34 2 15 -48 -8 -23 -15 -30 -18 -20 -20 57 -19 57 -30 23 -13 -44
-2 -80 33 -98 16 -8 31 -15 35 -15 3 0 5 42 5 94 0 71 3 95 14 99 15 6 26 -1
26 -16 0 -5 -7 -7 -15 -3 -12 4 -15 -4 -15 -39 0 -35 3 -43 15 -39 8 4 15 1
15 -5 0 -6 -7 -11 -15 -11 -11 0 -15 -11 -15 -41 l0 -41 33 19 c34 20 50 63
23 63 -9 0 -16 5 -16 11 0 6 6 9 14 6 9 -4 13 4 14 24 0 16 4 38 7 49 8 26
-11 51 -32 43 -11 -4 -14 -2 -9 5 11 19 32 14 49 -10 15 -22 16 -22 17 -3 0
35 36 81 80 103 38 18 40 19 25 2 -16 -17 -16 -22 -2 -50 15 -28 15 -32 0 -37
-10 -4 -23 3 -34 18 -18 22 -18 20 2 -26 22 -54 55 -95 76 -95 7 0 13 7 13 16
0 9 -6 14 -13 11 -16 -6 -41 20 -27 28 6 4 8 10 5 15 -8 13 16 60 31 60 8 0
11 -6 8 -15 -4 -8 -10 -15 -15 -15 -17 0 -9 -37 11 -55 28 -25 25 -53 -7 -66
l-26 -10 21 -20 c20 -18 27 -38 23 -62 -1 -4 11 -19 26 -32 27 -23 27 -24 6
-25 -12 0 -23 -6 -26 -12 -3 -9 -9 -8 -18 4 -8 10 -30 20 -49 24 -28 4 -32 3
-17 -6 21 -13 13 -32 -9 -23 -9 3 -20 0 -24 -7 -6 -9 -13 -4 -24 18 -9 17 -25
36 -35 42 -28 14 -38 12 -17 -3 22 -16 18 -50 -6 -55 -12 -2 -15 2 -11 16 3
12 -4 24 -20 35 -21 14 -27 14 -43 2 -23 -17 -35 -19 -31 -4 4 21 -19 20 -42
-2 -12 -12 -20 -27 -17 -35 3 -8 -1 -14 -8 -14 -22 0 -28 31 -10 51 10 11 12
19 6 19 -12 0 -62 -57 -62 -72 0 -7 -5 -6 -15 2 -8 6 -19 9 -25 5 -5 -3 -15
-3 -22 1 -8 5 2 14 27 26 22 9 36 18 30 18 -23 0 -91 -23 -107 -37 -11 -9 -18
-11 -23 -4 -3 6 -16 11 -27 11 -20 0 -21 1 -3 20 10 11 24 20 32 20 10 0 12 6
8 19 -9 29 4 71 21 64 24 -9 16 14 -11 31 -31 21 -31 27 1 66 25 30 26 31 9
50 -19 21 -13 42 6 23 13 -13 29 -80 21 -87 -3 -4 -14 -6 -24 -6 -10 0 -18 -7
-18 -15 0 -8 6 -15 14 -15 25 0 55 34 76 85 11 28 14 42 6 33 -27 -36 -53 -15
-34 27 9 19 9 28 0 37 -20 20 -14 32 6 15 10 -10 23 -17 29 -17z m161 -42 c10
-10 17 -10 32 0 18 11 50 7 50 -7 0 -3 -16 -17 -35 -30 l-36 -24 -27 24 c-15
13 -29 25 -32 27 -5 3 21 22 31 22 3 0 11 -6 17 -12z m83 -81 c-13 -13 -26 -3
-16 12 3 6 11 8 17 5 6 -4 6 -10 -1 -17z m-11 -25 c0 -13 -12 -22 -22 -16 -10
6 -1 24 13 24 5 0 9 -4 9 -8z m-9 -105 c-1 -12 -15 -9 -19 4 -3 6 1 10 8 8 6
-3 11 -8 11 -12z m-91 -92 c0 -8 -4 -15 -10 -15 -5 0 -7 7 -4 15 4 8 8 15 10
15 2 0 4 -7 4 -15z m21 -22 c-8 -15 -10 -15 -11 -2 0 17 10 32 18 25 2 -3 -1
-13 -7 -23z m62 19 c2 7 8 10 12 6 4 -4 0 -14 -8 -23 -15 -14 -17 -13 -28 7
-11 20 -11 22 3 10 13 -10 17 -10 21 0z m-1369 -173 c-8 -14 -13 -349 -5 -349
9 1 211 335 211 349 0 7 33 11 107 11 l106 0 -20 -22 c-25 -28 -243 -392 -243
-406 0 -14 227 -422 247 -444 15 -17 12 -18 -89 -18 -97 0 -106 2 -111 20 -7
28 -201 379 -209 380 -4 0 -6 -90 -5 -200 l2 -200 -92 0 -93 0 -2 445 -3 445
103 0 c73 0 101 -3 96 -11z m866 -71 l0 -83 -115 3 -116 4 3 -99 3 -98 98 1
97 0 0 -82 0 -81 -97 1 -98 1 0 -105 0 -105 120 0 120 0 -3 -82 -3 -83 -202 0
-202 0 0 445 0 445 198 0 197 0 0 -82z m522 13 c5 -101 8 -96 -73 -93 l-70 4
3 -366 3 -366 -85 0 -85 0 3 366 3 366 -71 -4 -70 -4 0 83 0 83 219 0 219 0 4
-69z m498 -13 l0 -83 -120 3 -120 4 0 -102 0 -102 95 4 95 4 0 -81 0 -81 -95
4 -95 4 0 -112 0 -112 120 4 120 4 0 -83 0 -83 -205 0 -205 0 0 445 0 445 205
0 205 0 0 -82z m272 -284 l-3 -367 111 5 110 4 0 -83 0 -83 -192 0 -193 0 0
445 0 445 85 0 85 0 -3 -366z m693 -79 l0 -445 -88 0 -88 0 1 288 c0 158 0
312 0 342 l0 54 -63 -62 c-59 -58 -65 -62 -110 -62 l-47 0 0 72 0 71 92 94 92
93 106 0 105 0 0 -445z m252 416 c14 -30 2 -57 -32 -73 -51 -23 -102 51 -63
90 22 22 81 10 95 -17z m23 -986 c0 -13 -203 -15 -1787 -13 -1418 2 -1787 6
-1791 16 -3 9 359 12 1787 12 1587 0 1791 -2 1791 -15z m-2797 -132 c-22 -15
-23 -21 -23 -179 0 -91 -5 -175 -11 -191 -13 -35 -55 -80 -91 -99 -35 -18 -36
-10 -2 19 35 31 43 79 44 259 0 163 -3 188 -25 188 -8 0 -17 5 -20 10 -4 6 22
10 72 9 74 0 77 -1 56 -16z m297 -21 c0 -32 -1 -34 -13 -17 -10 12 -28 18 -58
19 l-44 1 -3 -64 -3 -63 61 4 c58 4 61 3 56 -16 -3 -12 -6 -30 -6 -41 -1 -18
-2 -18 -10 3 -8 18 -17 22 -55 22 l-46 0 3 -72 3 -73 49 -3 c42 -3 53 0 69 20
l19 23 -6 -35 c-7 -39 -22 -52 -51 -45 -11 2 -58 5 -105 6 -47 0 -78 3 -70 6
27 11 30 26 30 181 l0 152 -25 10 c-14 5 -25 11 -25 13 0 3 52 5 115 5 l115 1
0 -37z m266 -99 l133 -138 0 105 c1 116 -5 150 -25 150 -7 0 -16 5 -19 10 -4
6 17 10 54 10 34 0 61 -4 61 -10 0 -5 -7 -10 -15 -10 -12 0 -15 -16 -15 -82
-1 -104 -11 -271 -17 -278 -3 -3 -65 57 -139 134 l-134 138 0 -75 c0 -118 10
-167 34 -177 14 -6 -1 -9 -49 -9 -49 0 -64 3 -49 9 20 8 22 18 29 184 4 97 10
176 13 176 3 0 66 -62 138 -137z m504 102 c0 -19 -4 -35 -10 -35 -5 0 -10 6
-10 14 0 15 -30 26 -72 26 -28 0 -28 -1 -28 -66 l0 -66 55 4 55 3 -1 -40 c0
-39 0 -40 -16 -17 -11 16 -25 22 -54 22 l-39 0 0 -70 c0 -64 2 -71 22 -79 12
-4 32 -7 43 -6 11 1 25 3 31 4 6 0 16 11 22 24 10 20 11 19 11 -14 1 -45 -5
-46 -139 -38 -52 3 -87 6 -78 7 15 2 17 19 20 150 4 180 2 192 -23 192 -10 0
-19 4 -19 9 0 5 52 9 115 9 l115 1 0 -34z m157 21 c-18 -14 -20 -6 72 -250 6
-14 19 10 54 97 48 119 55 147 37 147 -5 0 -10 5 -10 10 0 6 26 10 58 10 56 0
57 -1 35 -18 -18 -14 -83 -147 -170 -349 -3 -7 -9 -13 -13 -13 -4 0 -38 75
-75 168 -76 185 -79 192 -106 192 -11 0 -19 5 -19 10 0 6 32 10 78 10 66 -1
75 -3 59 -14z m503 -21 c0 -19 -4 -35 -10 -35 -5 0 -10 6 -10 14 0 15 -30 26
-72 26 -28 0 -28 -1 -28 -66 l0 -66 55 4 55 3 -1 -40 c0 -39 0 -40 -16 -17
-11 16 -25 22 -55 22 l-39 0 3 -72 c3 -68 4 -72 29 -79 39 -10 75 0 87 24 10
20 11 18 11 -14 1 -46 -4 -47 -134 -39 -55 4 -92 7 -82 8 15 2 17 17 17 172 0
163 -1 170 -20 170 -11 0 -20 4 -20 9 0 5 52 9 115 9 l115 1 0 -34z m272 25
c79 -22 91 -104 27 -175 -17 -20 -16 -22 39 -89 31 -38 70 -75 87 -82 l30 -13
-47 -1 c-25 0 -53 3 -62 6 -9 3 -39 37 -67 75 -38 52 -57 69 -75 69 -23 0 -24
-3 -24 -57 0 -65 6 -78 35 -86 11 -2 -16 -5 -60 -5 -57 -1 -74 2 -57 8 22 9
22 13 22 171 0 152 -1 161 -20 166 -11 3 -20 9 -20 14 0 12 147 11 192 -1z"/>
<path d="M2123 2937 c-16 -9 -20 -16 -13 -27 15 -24 12 -34 -6 -19 -15 12 -16
11 -9 -11 10 -32 11 -34 30 -26 9 3 15 14 13 23 -2 12 3 18 17 18 11 0 20 -6
19 -12 -1 -7 -2 -25 -3 -40 -1 -20 -4 -24 -10 -14 -5 8 -16 11 -30 6 -40 -12
-10 -27 46 -23 58 5 70 -12 17 -23 -27 -6 -27 -7 -4 -8 47 -2 71 10 68 33 -2
17 -10 21 -38 21 -33 0 -35 2 -32 31 3 25 -2 33 -23 42 -17 8 -25 18 -21 27 6
18 7 18 -21 2z"/>
<path d="M1840 2913 c-14 -14 -25 -36 -25 -51 0 -24 -4 -27 -35 -27 -25 0 -36
-5 -38 -17 -4 -21 34 -39 76 -37 23 1 22 2 -7 8 -51 9 -52 31 -2 24 22 -3 52
-2 68 2 l28 7 -24 9 c-15 6 -28 6 -36 -1 -10 -8 -14 -3 -18 22 -8 53 35 76 45
23 2 -11 11 -21 21 -23 13 -3 17 3 16 25 0 15 -3 22 -6 15 -2 -6 -9 -9 -14 -6
-6 4 -6 11 1 19 13 16 5 36 -13 34 -7 -1 -23 -12 -37 -26z"/>
<path d="M2148 2768 c5 -5 16 -8 23 -6 8 3 3 7 -10 11 -17 4 -21 3 -13 -5z"/>
<path d="M3692 2558 c-36 -36 7 -91 54 -69 42 19 26 81 -21 81 -12 0 -26 -5
-33 -12z m57 -30 c0 -18 -3 -27 -6 -20 -2 6 -11 12 -18 12 -7 0 -16 -6 -18
-12 -3 -7 -6 2 -6 20 -1 28 2 32 24 32 22 0 25 -4 24 -32z"/>
<path d="M3710 2540 c0 -5 7 -10 15 -10 8 0 15 5 15 10 0 6 -7 10 -15 10 -8 0
-15 -4 -15 -10z"/>
<path d="M2910 1341 c0 -72 2 -79 21 -84 28 -7 65 7 73 28 23 60 -13 135 -65
135 l-29 0 0 -79z"/>
</g>
</svg>
